<svg id="Layer_1" data-name="Layer 1" xmlns="http://www.w3.org/2000/svg" viewBox="0 0 24 24.11"><defs><style>.cls-1{fill:#231f20;}</style></defs><path class="cls-1" d="M25.5,6a4.48,4.48,0,0,0-3.64,7.12L18.78,16a1.22,1.22,0,0,0-1.55,0l-3.09-2.85A4.4,4.4,0,0,0,15,10.5,4.5,4.5,0,1,0,10.5,15a4.45,4.45,0,0,0,3-1.14l3.31,3a1.21,1.21,0,0,0,.36.9,1.24,1.24,0,0,0,.37.24v3.12a4.43,4.43,0,0,0-2.68,1.26,4.57,4.57,0,1,0,3.68-1.26v-3.1a1.15,1.15,0,0,0,.4-.26,1.25,1.25,0,0,0,.36-.92l3.28-3a4.45,4.45,0,0,0,3,1.14,4.5,4.5,0,0,0,0-9m-15,8A3.5,3.5,0,1,1,14,10.5a3.46,3.46,0,0,1-.6,1.95l-1.13-1a2,2,0,0,0,.23-.91,2,2,0,1,0-2,2,1.94,1.94,0,0,0,1.11-.34l1.11,1A3.41,3.41,0,0,1,10.5,14m10,9.13a3.56,3.56,0,1,1-3-1v1.52a1.93,1.93,0,0,0-.91.51,2,2,0,1,0,2.82,0,1.93,1.93,0,0,0-.91-.51V22.16a3.5,3.5,0,0,1,2,1m5-9.13a3.41,3.41,0,0,1-2.22-.82l1.11-1a1.94,1.94,0,0,0,1.11.34,2,2,0,1,0-2-2,2,2,0,0,0,.23.91l-1.14,1A3.5,3.5,0,1,1,25.5,14" transform="translate(-6 -6)"/></svg>